<mxfile host="65bd71144e">
    <diagram id="6uUzfXwrQ84olAihQ3Cj" name="Page-1">
        <mxGraphModel dx="822" dy="611" grid="1" gridSize="10" guides="1" tooltips="1" connect="1" arrows="1" fold="1" page="1" pageScale="1" pageWidth="850" pageHeight="1400" math="0" shadow="1">
            <root>
                <mxCell id="0"/>
                <mxCell id="1" parent="0"/>
                <mxCell id="21" style="edgeStyle=none;html=1;exitX=-0.007;exitY=0.489;exitDx=0;exitDy=0;exitPerimeter=0;" edge="1" parent="1" source="4" target="8">
                    <mxGeometry relative="1" as="geometry">
                        <Array as="points">
                            <mxPoint x="270" y="320"/>
                            <mxPoint x="190" y="320"/>
                        </Array>
                    </mxGeometry>
                </mxCell>
                <mxCell id="2" value="0" style="swimlane;childLayout=stackLayout;horizontal=1;startSize=30;horizontalStack=0;rounded=1;fontSize=14;fontStyle=0;strokeWidth=2;resizeParent=0;resizeLast=1;shadow=0;dashed=0;align=center;" vertex="1" parent="1">
                    <mxGeometry x="340" y="250" width="160" height="120" as="geometry"/>
                </mxCell>
                <mxCell id="4" value="&lt;p style=&quot;line-height: 0%; font-size: 22px;&quot;&gt;&lt;b&gt;Tourist App&lt;/b&gt;&lt;/p&gt;" style="text;html=1;align=center;verticalAlign=middle;resizable=0;points=[];autosize=1;strokeColor=none;fillColor=none;" vertex="1" parent="2">
                    <mxGeometry y="30" width="160" height="90" as="geometry"/>
                </mxCell>
                <mxCell id="11" value="" style="edgeStyle=orthogonalEdgeStyle;exitX=0.5;exitY=1;exitDx=0;exitDy=0;entryX=-0.008;entryY=0.347;entryDx=0;entryDy=0;entryPerimeter=0;fontSize=23;html=1;" edge="1" parent="1" source="7" target="4">
                    <mxGeometry relative="1" as="geometry">
                        <Array as="points">
                            <mxPoint x="190" y="290"/>
                            <mxPoint x="339" y="290"/>
                        </Array>
                    </mxGeometry>
                </mxCell>
                <mxCell id="7" value="Tourist" style="whiteSpace=wrap;html=1;align=center;strokeWidth=3;fontSize=23;" vertex="1" parent="1">
                    <mxGeometry x="140" y="170" width="100" height="40" as="geometry"/>
                </mxCell>
                <mxCell id="23" style="edgeStyle=none;html=1;exitX=1;exitY=1;exitDx=0;exitDy=0;entryX=0.473;entryY=0.996;entryDx=0;entryDy=0;entryPerimeter=0;" edge="1" parent="1" source="8" target="4">
                    <mxGeometry relative="1" as="geometry">
                        <mxPoint x="420" y="380" as="targetPoint"/>
                        <Array as="points">
                            <mxPoint x="416" y="410"/>
                        </Array>
                    </mxGeometry>
                </mxCell>
                <mxCell id="8" value="Place" style="whiteSpace=wrap;html=1;align=center;strokeWidth=3;fontSize=23;" vertex="1" parent="1">
                    <mxGeometry x="140" y="360" width="100" height="40" as="geometry"/>
                </mxCell>
                <mxCell id="16" style="edgeStyle=orthogonalEdgeStyle;html=1;exitX=0;exitY=1;exitDx=0;exitDy=0;entryX=1.013;entryY=0.8;entryDx=0;entryDy=0;entryPerimeter=0;fontSize=23;fontColor=#141414;" edge="1" parent="1" source="9" target="4">
                    <mxGeometry relative="1" as="geometry"/>
                </mxCell>
                <mxCell id="9" value="Services" style="whiteSpace=wrap;html=1;align=center;strokeWidth=3;fontSize=23;" vertex="1" parent="1">
                    <mxGeometry x="660" y="278" width="110" height="60" as="geometry"/>
                </mxCell>
                <mxCell id="13" value="&lt;font color=&quot;#141414&quot;&gt;Open trip section&lt;/font&gt;" style="rounded=1;arcSize=9;fillColor=#F7F8F9;align=left;spacingLeft=5;strokeColor=#DEE1E6;html=1;strokeWidth=2;fontSize=12;" vertex="1" parent="1">
                    <mxGeometry x="200" y="245" width="100" height="33" as="geometry"/>
                </mxCell>
                <mxCell id="14" style="edgeStyle=orthogonalEdgeStyle;html=1;fontSize=23;fontColor=#141414;entryX=0;entryY=0.5;entryDx=0;entryDy=0;" edge="1" parent="1" source="4" target="9">
                    <mxGeometry relative="1" as="geometry">
                        <mxPoint x="550" y="320" as="targetPoint"/>
                        <Array as="points">
                            <mxPoint x="520" y="325"/>
                            <mxPoint x="520" y="308"/>
                        </Array>
                    </mxGeometry>
                </mxCell>
                <mxCell id="15" value="&lt;font color=&quot;#141414&quot;&gt;check available !&lt;/font&gt;" style="rounded=1;arcSize=9;fillColor=#F7F8F9;align=left;spacingLeft=5;strokeColor=#DEE1E6;html=1;strokeWidth=2;fontSize=12;" vertex="1" parent="1">
                    <mxGeometry x="550" y="270" width="100" height="33" as="geometry"/>
                </mxCell>
                <mxCell id="20" value="&lt;font color=&quot;#141414&quot;&gt;show the available services in the current location&lt;/font&gt;" style="rounded=1;arcSize=9;fillColor=#F7F8F9;align=left;spacingLeft=5;strokeColor=#DEE1E6;html=1;strokeWidth=2;fontSize=12;" vertex="1" parent="1">
                    <mxGeometry x="540" y="370" width="280" height="33" as="geometry"/>
                </mxCell>
                <mxCell id="22" value="&lt;font color=&quot;#141414&quot;&gt;show the places&lt;/font&gt;" style="rounded=1;arcSize=9;fillColor=#F7F8F9;align=left;spacingLeft=5;strokeColor=#DEE1E6;html=1;strokeWidth=2;fontSize=12" vertex="1" parent="1">
                    <mxGeometry x="200" y="327" width="100" height="33" as="geometry"/>
                </mxCell>
                <mxCell id="24" value="&lt;font color=&quot;#141414&quot;&gt;checking the available services&lt;/font&gt;" style="rounded=1;arcSize=9;fillColor=#F7F8F9;align=left;spacingLeft=5;strokeColor=#DEE1E6;html=1;strokeWidth=2;fontSize=12" vertex="1" parent="1">
                    <mxGeometry x="270" y="410" width="190" height="33" as="geometry"/>
                </mxCell>
            </root>
        </mxGraphModel>
    </diagram>
</mxfile>